<?xml version="1.0" encoding="UTF-8"?>
<svg xmlns="http://www.w3.org/2000/svg" width="45" height="44" viewBox="0 0 45 44" fill="none">
  <rect x="0.5" width="44" height="44" rx="22" fill="#DDFAEC"></rect>
  <g clip-path="url(#clip0_34_1186)">
    <g clip-path="url(#clip1_34_1186)">
      <path d="M21.8702 11.0031C17.1276 10.8863 12.8778 14.2403 12.1271 18.7707C11.5653 22.1621 12.9014 25.2772 15.2665 27.2902C15.9928 27.9079 16.374 28.8218 16.374 29.7576V33.0002H25.1242V31.6813C25.1242 30.9528 25.6056 30.3067 26.3205 30.0766L29.178 29.156C29.892 28.925 30.3743 28.2782 30.3743 27.5497V24.322L32.3585 23.6609C32.7371 23.5593 32.9991 23.2261 32.9994 22.8462C32.9988 22.6515 32.9288 22.4629 32.8011 22.3123L32.7772 22.2842C32.7689 22.2747 32.7603 22.2653 32.7516 22.2562L30.3384 19.4598C29.9877 14.795 26.7533 11.1221 21.8702 11.0031ZM20.6243 16.0768H22.6222L22.4564 22H20.7901L20.6243 16.0768ZM21.6275 24.008C22.3967 24.008 22.8597 24.4084 22.8597 25.0921C22.8597 25.764 22.3967 26.1631 21.6275 26.1631C20.8523 26.1631 20.3902 25.7631 20.3902 25.0921C20.3902 24.4084 20.8523 24.008 21.6275 24.008Z" fill="#00BA74"></path>
    </g>
  </g>
  <defs>
    <clipPath id="clip0_34_1186">
      <rect width="24.8126" height="26.5849" fill="white" transform="translate(10.0935 8.84624)"></rect>
    </clipPath>
    <clipPath id="clip1_34_1186">
      <rect width="24.8126" height="26.5849" fill="white" transform="translate(10.0933 8.8463)"></rect>
    </clipPath>
  </defs>
</svg>
