<?xml version="1.0" encoding="UTF-8"?>
<svg xmlns="http://www.w3.org/2000/svg" width="45" height="44" viewBox="0 0 45 44" fill="none">
  <rect x="0.5" width="44" height="44" rx="22" fill="#DDFAEC"></rect>
  <path d="M23 11.0002C16.9252 11.0002 12 15.9254 12 22.0002C12 28.0749 16.9252 33.0002 23 33.0002C29.0747 33.0002 34 28.0749 34 22.0002C34 15.9254 29.0747 11.0002 23 11.0002ZM28.2314 27.2316C27.873 27.59 27.2927 27.59 26.9352 27.2316L24.1853 24.4816L25.4814 23.1854L28.2314 25.9354C28.5898 26.2929 28.5898 26.8741 28.2314 27.2316ZM28.4276 20.0935C27.5366 20.9845 26.3156 21.2824 25.3549 20.9414L19.0657 27.2307C18.7072 27.5891 18.127 27.5891 17.7695 27.2307C17.4111 26.8722 17.4111 26.292 17.7695 25.9345L20.7872 22.9168L18.6953 20.825C17.3222 19.4518 17.0096 17.3417 17.9262 15.6293L23 20.704L24.0578 19.6462C23.7168 18.6855 24.0148 17.4645 24.9058 16.5735C26.0727 15.4066 27.8061 15.2489 28.7787 16.2215C29.7512 17.1941 29.5936 18.9275 28.4276 20.0935Z" fill="#00BA74"></path>
</svg>
